<svg width="14" height="27" viewBox="0 0 14 27" fill="none" xmlns="http://www.w3.org/2000/svg">
<path d="M3.01252 26.625C3.29282 26.6259 3.56979 26.5641 3.82305 26.4441C4.07631 26.324 4.29944 26.1488 4.47603 25.9312L13.5386 14.6812C13.8145 14.3457 13.9654 13.9249 13.9654 13.4906C13.9654 13.0563 13.8145 12.6355 13.5386 12.3L4.15706 1.05C3.83858 0.667092 3.38093 0.426296 2.88478 0.380584C2.38864 0.334872 1.89464 0.487988 1.51147 0.806248C1.1283 1.12451 0.887338 1.58184 0.841595 2.07764C0.795851 2.57344 0.949072 3.06709 1.26755 3.45L9.65463 13.5L1.549 23.55C1.31956 23.8252 1.17381 24.1604 1.12901 24.5158C1.0842 24.8712 1.14221 25.232 1.29617 25.5554C1.45014 25.8789 1.6936 26.1516 1.99777 26.3411C2.30194 26.5307 2.65408 26.6292 3.01252 26.625Z" fill="#343333"/>
</svg>
