<svg width="25" height="25" viewBox="0 0 25 25" fill="none" xmlns="http://www.w3.org/2000/svg">
<path d="M2.2 2.125L0.175004 3.6L3.0375 7.5C3.79685 7.10112 4.60311 6.79877 5.4375 6.6L2.2 2.125ZM11.25 8.75V11.25H20V11.6125L13.75 13.3875V16.875C13.75 17.9875 13.4201 19.0751 12.802 20.0001C12.1839 20.9251 11.3054 21.6461 10.2776 22.0718C9.24976 22.4976 8.11876 22.609 7.02762 22.3919C5.93648 22.1749 4.9342 21.6391 4.14753 20.8525C3.36086 20.0658 2.82513 19.0635 2.60809 17.9724C2.39104 16.8812 2.50244 15.7502 2.92818 14.7224C3.35392 13.6946 4.07489 12.8161 4.99992 12.198C5.92495 11.5799 7.01248 11.25 8.125 11.25H8.75V8.75H8.125C6.51803 8.75 4.94714 9.22652 3.611 10.1193C2.27485 11.0121 1.23344 12.281 0.618482 13.7657C0.00352044 15.2503 -0.157382 16.884 0.156123 18.4601C0.469628 20.0362 1.24346 21.4839 2.37976 22.6202C3.51606 23.7565 4.9638 24.5304 6.53989 24.8439C8.11599 25.1574 9.74965 24.9965 11.2343 24.3815C12.719 23.7666 13.9879 22.7252 14.8807 21.389C15.7735 20.0529 16.25 18.482 16.25 16.875V14.8875L25 12.5V8.75H11.25ZM17.8 2.125L14.8125 6.25H17.9L19.825 3.6L17.8 2.125ZM8.75 0V6.25H11.25V0H8.75Z" fill="#343333"/>
</svg>
