<svg width="52" height="60" viewBox="0 0 52 60" fill="none" xmlns="http://www.w3.org/2000/svg">
<path d="M23.9657 59.9491C21.7423 59.8544 20.4885 59.6204 17.8137 58.8012C16.5878 58.4278 14.5761 57.5641 13.1942 56.823C12.5868 56.4942 11.3943 55.7698 11.1769 55.5915C11.1491 55.5692 10.8593 55.3574 10.5361 55.1234C9.99001 54.7222 9.6891 54.4826 8.9201 53.8362C8.51889 53.4962 6.56295 51.5459 6.22861 51.1502C5.54877 50.3422 5.24786 49.9633 4.88565 49.4674C4.38413 48.7819 4.07764 48.3417 3.93276 48.1077C3.0133 46.6143 2.64552 45.9177 2.0437 44.4912C2.00469 44.402 1.93782 44.2348 1.89881 44.1289C1.85981 44.0231 1.79851 43.8615 1.7595 43.7667C1.62019 43.4435 1.1521 41.9445 0.873482 40.9471C0.73417 40.4511 0.516845 39.3144 0.422113 38.5899C0.377534 38.2277 0.327382 37.8767 0.310664 37.8098C0.238222 37.4866 0.160208 35.8483 0.0877661 33.2069C-0.0292554 28.9942 -0.0292554 7.12231 0.0877661 4.69272C0.204788 2.17397 0.243795 2.02909 1.05737 1.1375C1.56447 0.580254 1.84866 0.379646 2.23316 0.312776C3.16933 0.145603 4.23924 0.101023 8.41858 0.0508713C13.9074 -0.0159981 45.5088 -0.0159981 47.2028 0.0452989C48.2282 0.084306 48.5347 0.117741 48.8634 0.212472C50.0281 0.563537 50.6243 1.05948 51.1481 2.11268L51.4602 2.75351L51.5103 8.35382C51.6218 20.3012 51.5605 32.7946 51.3822 36.1882C51.2819 38.0438 51.0701 39.3366 50.5965 40.9749C50.1674 42.4684 49.7439 43.6441 49.2869 44.6137C49.2145 44.7698 49.1532 44.9147 49.1532 44.937C49.1532 45.015 48.6405 46.018 48.1892 46.8316C47.6598 47.7789 46.5564 49.4952 46.2834 49.7906C46.2555 49.824 46.1664 49.9354 46.0884 50.0357C45.9268 50.2586 45.4141 50.8772 45.0407 51.3174C44.6005 51.8301 43.2743 53.1619 42.7616 53.6021C42.4941 53.8306 42.2378 54.0591 42.1876 54.1036C42.1431 54.1482 41.9034 54.3432 41.6583 54.5327C41.4131 54.7277 41.1902 54.9005 41.1567 54.9284C41.1289 54.9506 40.8893 55.1178 40.6274 55.3017C40.3654 55.48 40.1425 55.6416 40.1258 55.6639C40.1091 55.6806 39.8472 55.8534 39.5407 56.0428C39.2342 56.2323 38.9612 56.4051 38.9278 56.4273C38.8999 56.4496 38.7996 56.5109 38.7049 56.5555C38.6157 56.6001 38.5265 56.6558 38.5098 56.6781C38.4652 56.7338 36.3589 57.7814 35.9688 57.943C35.7905 58.0155 35.5676 58.1102 35.4728 58.1492C35.2388 58.2495 34.0073 58.6842 33.4389 58.8681C32.6476 59.1244 31.5944 59.4197 31.0427 59.5423C30.8421 59.5869 30.5301 59.6594 30.3462 59.6984C29.8502 59.8154 29.0088 59.8934 27.4318 59.9547C25.8882 60.016 25.5762 60.016 23.9657 59.9491ZM28.0893 57.4471C28.8193 57.4192 29.5828 57.3579 29.8168 57.3134C30.5691 57.1573 31.6724 56.8731 32.4916 56.6224C32.6922 56.5611 33.0321 56.4608 33.2439 56.3939C33.4612 56.3326 33.6841 56.2546 33.7454 56.2267C33.8067 56.1989 34.0964 56.0818 34.3862 55.9704C34.9713 55.7419 36.5093 54.9952 37.0331 54.6887C37.217 54.5829 37.4678 54.4436 37.5848 54.3767C37.7018 54.3154 37.83 54.2374 37.8634 54.2095C37.8969 54.1816 38.0863 54.0535 38.2869 53.9253C40.3041 52.6492 42.5498 50.5818 44.0265 48.6426C44.2272 48.3807 44.3999 48.1578 44.4166 48.1411C44.4556 48.1021 44.6284 47.8513 45.0184 47.2718C46.7849 44.6583 48.0833 41.5266 48.6795 38.445C48.7631 38.0327 48.8634 37.5423 48.908 37.3528C48.9749 37.0687 48.986 34.5555 48.986 20.1284V3.23831L48.7074 2.94854L48.4288 2.66435L30.0285 2.60305C15.9247 2.55847 10.7033 2.55847 7.69416 2.60863C5.53205 2.64763 3.63185 2.69778 3.47582 2.72565C3.19162 2.77023 3.11361 2.81481 2.913 3.01541C2.63995 3.28846 2.65109 3.16587 2.61766 5.76263C2.56193 9.44045 2.56751 21.1705 2.62323 29.2226C2.67896 36.7622 2.6901 37.1411 2.95201 38.2277C3.0133 38.4841 3.08017 38.8351 3.09689 39.0023C3.1749 39.6487 3.82131 41.7328 4.41756 43.2374C4.69618 43.9451 5.56549 45.7338 5.68808 45.8564C5.7048 45.8731 5.76609 45.9734 5.82182 46.0793C6.05029 46.5028 6.86944 47.7343 7.20379 48.169C7.23165 48.2024 7.37653 48.3863 7.52699 48.5869C9.84513 51.596 13.1719 54.1761 16.7327 55.7196C16.9556 55.8199 17.2676 55.9537 17.4181 56.0261C17.7636 56.1822 18.7722 56.5444 19.1456 56.6502C19.909 56.862 21.5863 57.2744 21.9485 57.3357C22.9014 57.4917 25.643 57.5474 28.0893 57.4471Z" fill="#3241A5"/>
<path d="M17.6525 50.7212C17.6302 50.7044 17.6302 50.5595 17.6469 50.4035C17.6748 50.136 17.6636 50.1026 17.4519 49.8184C17.0785 49.3336 17.1454 49.0773 17.8364 48.2804C18.193 47.8681 18.3602 47.556 18.3156 47.3833C18.2989 47.3164 18.154 47.1102 18.0036 46.9375C17.8029 46.709 17.7416 46.5975 17.7807 46.5585C17.8419 46.4972 17.8587 46.4917 18.1039 46.4805C18.2655 46.4694 18.4271 46.2019 18.5162 45.8007C18.5497 45.6335 18.5887 45.4552 18.5998 45.4106C18.6221 45.2992 18.8227 43.789 18.8673 43.3767C18.9676 42.4405 19.0902 42.0058 19.4524 41.287C19.6753 40.8468 19.6976 40.6406 19.5861 40.1892C19.5081 39.866 19.497 39.6543 19.5304 38.8072C19.614 36.6117 19.6084 36.5058 19.3688 36.3554C19.3075 36.3164 19.0735 36.2662 18.845 36.2439C18.4939 36.2161 17.5689 36.0266 16.7497 35.826C16.4544 35.7535 15.964 35.7535 15.8303 35.826C15.769 35.8594 15.652 36.0266 15.5684 36.1938C15.2786 36.7844 14.7381 37.1578 14.4149 36.9851C14.3424 36.946 14.114 36.7566 13.9078 36.5616C13.7072 36.3665 13.4063 36.1213 13.2391 36.0154C12.8045 35.7424 12.7487 35.6365 12.8156 35.2353C12.8769 34.8452 13.0496 34.3716 13.4007 33.6527C13.7183 32.9952 13.7351 32.75 13.4899 32.4937C13.3896 32.3878 13.3227 32.2596 13.3227 32.1649C13.3227 31.9643 13.5177 31.6912 13.7963 31.5073C13.9914 31.3792 14.0527 31.3625 14.2979 31.4015C14.9666 31.5018 14.9053 31.5408 15.3678 30.7272C15.8972 29.7966 16.3875 28.8158 16.3875 28.6821C16.3875 28.6264 16.3541 28.5094 16.3095 28.4258C16.2036 28.2196 16.2594 28.1081 16.6773 27.6623C17.5578 26.715 18.5274 25.9405 19.3131 25.556C20.617 24.9151 21.1353 24.7981 23.0689 24.7089C23.9549 24.6699 24.5233 24.6198 24.5233 24.5752C24.5233 24.5585 24.4787 24.4638 24.4174 24.3746C24.3171 24.2074 24.3171 24.1963 24.4174 24.0124C24.4787 23.9065 24.5233 23.7505 24.5233 23.6669C24.5233 23.5833 24.5735 23.4217 24.6292 23.3047C24.7016 23.1542 24.7462 22.9202 24.7685 22.4967C24.8075 21.7834 24.9413 21.3822 25.2422 21.0701L25.4539 20.8528L26.0725 20.8194C26.9306 20.7748 27.499 20.8249 27.8445 20.9754C28.4853 21.2596 29.3156 22.3128 29.2432 22.753C29.2098 22.9536 29.2989 23.1264 29.5218 23.3047C29.6834 23.4329 29.6834 23.5889 29.533 23.9678C29.4661 24.1294 29.3825 24.4136 29.3491 24.5919C29.2766 24.9318 29.232 24.9876 28.9701 25.0433C28.8865 25.06 28.7918 25.1213 28.7584 25.1826C28.6692 25.3442 28.8865 25.5337 29.3714 25.7176C30.2407 26.0519 30.5416 26.3528 31.5948 27.9577C31.9124 28.4425 32.191 28.9384 32.2412 29.0945C32.3303 29.4065 32.3638 29.7464 32.4362 31.2566L32.4808 32.2875L32.23 32.672C31.879 33.2069 31.7229 33.5691 31.6616 33.9927C31.6226 34.2824 31.5669 34.4162 31.4109 34.6223C31.0877 35.0458 31.1545 35.3969 31.7229 36.2996C31.8177 36.4557 32.0851 36.9405 32.3136 37.3863C32.5421 37.8321 32.7817 38.2556 32.8486 38.3224C33.0938 38.5955 33.7792 38.824 35.1333 39.0859C35.3506 39.1305 35.8187 39.2308 36.1697 39.3088C36.5208 39.3868 36.8607 39.4592 36.922 39.4704C37.1895 39.5205 37.9362 39.671 38.0644 39.6988C38.6551 39.827 39.4129 39.905 40.2934 39.9329L41.3243 39.9607L42.0487 39.2029C43.2746 37.9101 43.9767 37.3305 44.3222 37.3305C44.4894 37.3305 44.8293 37.5869 44.9519 37.8098C45.1247 38.1218 44.9631 38.3837 44.1551 39.0859C43.4975 39.6598 42.8901 40.0443 42.0765 40.3954C41.8091 40.5124 40.9008 40.5013 40.2376 40.3731C39.9479 40.3174 38.8445 40.1001 37.7858 39.8939C36.727 39.6877 35.5512 39.4592 35.1667 39.3924C34.7822 39.3255 34.2974 39.2308 34.0801 39.1862C33.8683 39.1416 33.5897 39.0914 33.4727 39.0747C33.2275 39.0357 33.2275 38.9967 33.4281 39.6765C33.5228 39.983 33.5284 40.0833 33.4783 40.2728C33.4281 40.4623 33.4337 40.5849 33.5228 40.9359C33.6008 41.2424 33.6343 41.5656 33.6343 42.0393C33.6343 42.7804 33.5953 42.9141 33.1606 43.7946C33.038 44.0454 32.9377 44.2683 32.9377 44.2905C32.9377 44.3128 33.0436 44.3964 33.1773 44.48C33.573 44.7308 33.7011 45.0651 33.5284 45.3995C33.4838 45.483 33.3222 45.7115 33.1662 45.9066C32.843 46.3078 32.8096 46.4861 33.0102 46.7313C33.0826 46.8149 33.1606 46.9319 33.1773 46.9876C33.2163 47.0879 33.1216 47.6284 33.0492 47.7232C33.0269 47.7566 32.9767 47.8681 32.9433 47.9795C32.9099 48.0854 32.8096 48.2581 32.7204 48.364L32.5644 48.5535L32.4028 48.4476C32.074 48.2358 31.6616 47.7622 31.4722 47.3833C31.3663 47.1715 31.1768 46.6867 31.0431 46.3022C30.7868 45.5388 30.4914 44.8032 30.3187 44.48C30.1738 44.207 30.1794 44.0676 30.3354 43.8726C30.4468 43.7277 30.458 43.6553 30.458 43.0423C30.458 42.4293 30.4023 41.5155 30.3577 41.4765C30.3354 41.4542 29.2766 41.6102 29.0537 41.6715C28.9088 41.7105 28.8475 41.6994 28.7361 41.6158C28.5522 41.4709 28.0841 40.7297 27.7832 40.1056C27.3486 39.1862 26.4402 37.9379 26.0725 37.7596C25.8217 37.637 25.2477 37.52 24.6626 37.4754L24.2168 37.4364L24.0497 38.0382C23.8825 38.6345 23.8825 38.6568 23.8936 39.8549L23.9103 41.0641H23.771C23.693 41.0641 23.5871 41.0139 23.537 40.9526C23.4033 40.7966 23.2138 40.8133 23.0801 40.9972C22.7847 41.3817 22.2275 42.2287 22.1216 42.4461C22.0603 42.5742 21.9879 42.8306 21.9544 43.0089C21.8653 43.5828 21.5532 44.324 21.1186 44.9927C21.0015 45.1821 20.8845 45.4162 20.8678 45.5221C20.8176 45.784 20.6616 46.0236 20.4331 46.1907C20.1824 46.3691 20.1601 46.4805 20.2604 47.021C20.3384 47.4278 20.3384 47.5003 20.2548 47.7845C20.0709 48.4309 19.614 49.2723 19.2685 49.6067C18.7837 50.0747 18.2877 50.476 17.9701 50.6431C17.7361 50.7713 17.7082 50.7769 17.6525 50.7212ZM19.5081 35.9263C19.692 35.8148 19.9428 35.2743 20.0096 34.8452C20.1434 33.9982 20.1712 33.9258 20.4499 33.5747C20.6115 33.3685 20.7786 33.0843 20.8511 32.8726C20.9625 32.5494 20.9737 32.4156 20.9681 31.5854C20.9625 30.9055 20.9347 30.6102 20.8734 30.4597C20.8176 30.326 20.7898 30.0696 20.7898 29.7019C20.7898 29.3954 20.7675 29.1279 20.7341 29.1112C20.6728 29.0722 20.4944 29.2171 19.731 29.9526C19.0456 30.6157 18.8171 30.8108 18.7335 30.8108C18.6945 30.8108 18.6109 30.7439 18.5385 30.6603C18.4103 30.5099 18.4103 30.5099 18.2487 30.6102C17.8587 30.8609 16.6383 32.2318 16.3931 32.6998C16.3151 32.8392 16.3374 33.1345 16.4488 33.5524C16.5157 33.8032 16.5101 33.8199 16.343 34.0818C15.9585 34.6836 15.847 35.1127 16.042 35.2799C16.1312 35.3579 16.3987 35.4415 17.1398 35.6031C17.4519 35.6755 17.58 35.7034 17.7807 35.7424C17.8587 35.7591 18.1206 35.8148 18.3658 35.8706C18.9341 35.9987 19.3577 36.021 19.5081 35.9263Z" fill="#3241A5"/>
<path d="M8.06763 16.0438C7.77229 15.8098 7.75 15.6092 7.75 13.2799C7.75 9.7191 7.93946 7.8579 8.40198 6.93288C8.76419 6.21403 9.46074 5.69579 10.2632 5.55091C10.7814 5.4506 12.4754 5.34473 13.5008 5.34473H14.6487L14.9217 5.58991L15.1892 5.8351L15.1837 6.32548C15.1781 7.65172 15.0109 7.79661 13.4952 7.79661C12.1857 7.79661 11.0433 8.0808 10.8761 8.44858C10.7703 8.68263 10.709 9.67452 10.6477 12.2824C10.5864 14.9516 10.5529 15.5535 10.4471 15.8098C10.4081 15.9045 10.3691 15.9881 10.3579 15.9881C10.3468 15.9881 10.1294 16.0271 9.86753 16.0717C9.60563 16.1163 9.1264 16.1553 8.80319 16.1553C8.2961 16.1553 8.19022 16.1386 8.06763 16.0438Z" fill="#3241A5"/>
<path d="M40.7441 16.066C39.7466 15.9657 39.3621 15.793 38.7436 15.1633C38.5095 14.9237 38.2588 14.6172 38.1863 14.4835C38.008 14.1435 37.8576 13.33 37.7907 12.3659C37.7015 11.0676 37.6625 7.79652 37.7182 6.78791C37.8074 5.37251 37.852 5.31678 39.0055 5.36136C39.8804 5.3948 40.2704 5.47281 40.354 5.63441C40.4376 5.79044 40.5546 8.02499 40.5936 10.1927C40.6326 12.3604 40.6828 12.9176 40.85 13.1294C41.1453 13.5083 41.8586 13.7033 42.9341 13.7033C43.7086 13.7033 44.4888 13.7925 44.7284 13.9039C44.8677 13.9708 44.9346 14.0544 44.9959 14.2494C45.1185 14.5949 45.1073 15.3751 44.9847 15.7373C44.9011 15.9825 44.8677 16.0215 44.6671 16.0828C44.3606 16.1719 41.7081 16.1608 40.7441 16.066Z" fill="#3241A5"/>
<path d="M19.8755 15.988C19.6638 15.9602 19.4743 15.9212 19.4464 15.8933C19.3239 15.7651 19.2848 14.7732 19.2848 11.4688V7.9637H19.1344C18.6106 7.95256 17.4404 7.84668 17.2676 7.79653C17.1116 7.75195 17.0447 7.69622 17.0169 7.58477C16.9388 7.3173 16.9611 5.65113 17.0447 5.5564C17.1896 5.37808 17.9307 5.3335 20.6501 5.33907C22.4611 5.34465 23.3973 5.36694 23.6815 5.41152C24.1607 5.4951 24.1607 5.48953 24.222 6.25853C24.2499 6.67646 24.183 7.54019 24.1106 7.61264C24.0604 7.66279 22.8289 7.89683 22.372 7.93584L21.9429 7.98042L21.9763 11.1066C21.9986 12.8229 21.993 14.5671 21.9652 14.9738C21.9206 15.6593 21.9095 15.7317 21.7813 15.8543C21.6531 15.9825 21.5974 15.9936 20.951 16.0159C20.5721 16.027 20.0873 16.0159 19.8755 15.988Z" fill="#3241A5"/>
<path d="M26.5291 15.988C26.3285 15.9657 26.1223 15.9267 26.0722 15.9045C25.827 15.8041 25.8047 15.3138 25.8047 10.2763V5.59542L25.9997 5.47283C26.1056 5.40039 26.3118 5.3168 26.4567 5.28336C26.8022 5.20535 27.9612 5.20535 28.1618 5.28336C28.5185 5.42268 28.6466 6.1861 28.6466 8.21447V9.524L30.8923 9.51285L33.1325 9.49614L33.1715 7.68509C33.1882 6.68762 33.2216 5.80717 33.2439 5.71802C33.3442 5.32794 34.1578 5.13291 35.0048 5.28894C35.9131 5.45611 35.9465 5.58985 35.9465 9.32896C35.9465 13.0736 35.8295 15.832 35.6624 15.9379C35.5676 15.9936 34.3863 16.0326 33.9015 15.9936C33.6507 15.9769 33.4111 15.9267 33.3721 15.8877C33.3164 15.832 33.2941 15.3862 33.2829 13.982L33.2662 12.143H31.522C30.5636 12.143 29.5104 12.1598 29.1872 12.1821L28.5909 12.2155V13.3356C28.5853 15.2971 28.5018 15.8041 28.1841 15.9267C27.9947 15.9992 26.9359 16.0382 26.5291 15.988Z" fill="#3241A5"/>
</svg>
