<svg width="27" height="20" viewBox="0 0 27 20" fill="none" xmlns="http://www.w3.org/2000/svg">
<path d="M13.3333 0C6 0 0 2.09333 0 4.66667C0 7.24 6 9.33333 13.3333 9.33333C20.6667 9.33333 26.6667 7.24 26.6667 4.66667C26.6667 2.09333 20.6667 0 13.3333 0ZM0 9.01333V15.3333C0 17.9067 6 20 13.3333 20C20.6667 20 26.6667 17.9067 26.6667 15.3333V9.01333C25.7733 9.62667 24.7733 10.0933 23.64 10.48C20.8267 11.4667 17.2667 12 13.3333 12C9.4 12 5.84 11.4667 3.02667 10.48C1.89333 10.0933 0.893333 9.62667 0 9.01333Z" fill="#343333"/>
</svg>
